<?xml version="1.0" standalone="no"?>
<!DOCTYPE svg PUBLIC "-//W3C//DTD SVG 20010904//EN"
 "http://www.w3.org/TR/2001/REC-SVG-20010904/DTD/svg10.dtd">
<svg version="1.0" xmlns="http://www.w3.org/2000/svg"
 width="500.000000pt" height="500.000000pt" viewBox="0 0 500.000000 500.000000"
 preserveAspectRatio="xMidYMid meet">

<g transform="translate(0.000000,500.000000) scale(0.100000,-0.100000)"
fill="#000000" stroke="none">
<path d="M2436 3924 c-3 -26 -6 -89 -6 -140 0 -77 3 -94 15 -94 12 0 15 13 15
60 l0 60 75 0 c41 0 75 4 75 9 0 13 -37 21 -97 21 -58 0 -61 5 -47 80 l7 32
78 -4 c62 -4 79 -2 79 9 0 10 -22 13 -94 13 l-93 0 -7 -46z"/>
<path d="M2152 3913 c-88 -43 -101 -166 -25 -233 29 -26 42 -30 90 -30 92 0
153 56 153 139 0 45 -35 108 -70 126 -38 20 -106 19 -148 -2z m122 -18 c41
-20 66 -63 66 -115 0 -90 -124 -143 -194 -81 -24 22 -46 65 -46 93 0 35 37 88
73 103 42 18 62 18 101 0z"/>
<path d="M2914 3822 c-21 -31 -55 -84 -76 -116 -27 -41 -36 -62 -29 -69 6 -6
12 -9 14 -6 2 2 26 38 52 79 27 41 53 80 58 85 5 6 7 -33 6 -92 -2 -57 0 -105
3 -108 3 -4 47 15 98 40 51 25 93 45 95 43 1 -2 -24 -43 -56 -92 -40 -60 -56
-93 -49 -100 12 -12 4 -22 85 104 38 58 72 110 77 116 22 29 -26 18 -118 -27
-54 -27 -102 -49 -106 -49 -4 0 -5 53 -1 119 4 78 2 120 -5 125 -5 3 -27 -20
-48 -52z"/>
<path d="M2642 3693 c2 -10 10 -18 18 -18 8 0 16 8 18 18 2 12 -3 17 -18 17
-15 0 -20 -5 -18 -17z"/>
<path d="M1743 3650 c-12 -5 -36 -28 -53 -51 -96 -134 64 -296 197 -200 28 20
47 45 58 75 l18 46 -39 35 c-38 34 -64 44 -64 26 0 -5 16 -23 36 -39 35 -29
35 -30 21 -64 -24 -57 -63 -81 -122 -75 -41 4 -54 10 -77 38 -50 60 -27 151
47 186 19 9 35 20 35 25 0 10 -29 9 -57 -2z"/>
<path d="M2075 3611 c-8 -15 3 -31 21 -31 9 0 14 7 12 17 -4 20 -24 28 -33 14z"/>
<path d="M3264 3587 c-17 -12 -44 -31 -60 -42 -52 -36 -129 -97 -129 -104 0
-15 109 -160 117 -155 14 9 10 18 -38 84 l-47 63 34 28 c19 16 39 29 44 29 6
0 28 -24 50 -54 22 -30 43 -52 47 -50 13 9 9 20 -23 60 -52 66 -53 68 -8 97
l40 27 24 -28 c14 -15 25 -30 25 -34 0 -3 12 -20 26 -37 47 -56 45 -21 -2 47
-67 96 -64 94 -100 69z"/>
<path d="M1542 3374 c2 -11 38 -29 101 -52 54 -19 96 -37 93 -39 -3 -3 -62
-25 -133 -48 -73 -25 -129 -50 -131 -58 -2 -8 11 -18 30 -24 18 -7 77 -27 130
-46 72 -26 98 -32 102 -22 4 11 -101 58 -183 81 -32 9 -22 13 119 59 119 39
147 52 133 66 -7 7 -250 99 -260 99 -3 0 -3 -7 -1 -16z"/>
<path d="M3420 3329 c-14 -6 -67 -21 -119 -35 -103 -26 -109 -30 -95 -44 6 -6
42 0 99 15 49 14 94 25 98 25 5 0 -23 -34 -62 -76 -39 -42 -69 -80 -66 -84 3
-5 48 -18 100 -31 52 -12 95 -25 95 -29 0 -4 -40 -18 -88 -29 -98 -25 -122
-36 -107 -49 8 -8 194 37 264 63 21 8 -4 31 -42 39 -17 4 -67 16 -110 28 l-79
21 81 81 c96 97 108 135 31 105z"/>
<path d="M1450 3026 c0 -9 6 -16 13 -16 6 0 68 -7 136 -15 69 -8 127 -13 129
-10 3 2 2 10 -1 18 -4 10 -32 16 -94 21 -48 4 -109 9 -135 13 -40 5 -48 3 -48
-11z"/>
<path d="M1698 2951 c-1 -5 -29 -37 -62 -71 l-59 -61 -54 38 c-30 21 -63 44
-73 51 -16 12 -18 11 -14 -5 3 -10 46 -49 95 -87 50 -37 89 -69 87 -71 -2 -2
-36 -8 -76 -13 -41 -6 -77 -13 -80 -16 -15 -16 19 -17 142 -5 118 11 136 15
136 30 0 15 -6 17 -34 12 -32 -5 -55 5 -105 44 -2 1 23 32 57 67 34 35 62 71
62 80 0 17 -16 22 -22 7z"/>
<path d="M3264 2840 c-7 -73 -6 -100 2 -100 12 0 24 66 24 126 l0 34 56 0 56
0 -7 -75 c-5 -47 -4 -75 3 -75 10 0 22 55 22 108 l0 33 53 -3 52 -3 -3 -40
c-1 -22 -5 -59 -8 -82 -4 -33 -2 -43 9 -43 11 0 16 22 21 91 4 50 5 93 3 95
-2 2 -48 8 -103 14 -54 5 -115 12 -135 15 l-36 5 -9 -100z"/>
<path d="M3249 2666 c-53 -36 -85 -126 -59 -166 13 -22 25 -4 22 35 -9 101
111 163 188 98 59 -49 62 -117 9 -174 -48 -51 -33 -70 16 -21 34 34 45 62 45
115 -1 78 -51 128 -134 134 -42 4 -57 0 -87 -21z"/>
<path d="M1765 2590 c-8 -14 3 -30 21 -30 8 0 14 9 14 20 0 21 -24 28 -35 10z"/>
<path d="M1846 2462 c-2 -4 20 -35 50 -67 30 -33 54 -62 54 -66 0 -3 -16 -21
-35 -39 l-36 -35 -48 54 c-30 34 -52 52 -59 47 -9 -5 2 -22 33 -54 24 -26 45
-53 45 -60 0 -7 -14 -25 -32 -40 l-31 -29 -56 59 c-31 32 -59 58 -63 58 -22 0
-1 -32 56 -89 75 -74 55 -79 186 46 l85 82 -60 64 c-62 67 -81 81 -89 69z"/>
<path d="M3115 2438 c-100 -55 -123 -167 -48 -241 47 -48 97 -56 158 -27 110
53 122 196 20 255 -44 26 -97 32 -130 13z m136 -54 c70 -67 32 -180 -69 -200
-60 -12 -132 50 -132 114 0 43 35 98 70 112 41 16 99 5 131 -26z"/>
<path d="M2023 2277 c-9 -11 -71 -124 -110 -199 -14 -28 -10 -53 8 -42 5 3 21
28 35 55 l25 50 79 -42 79 -41 -29 -52 c-34 -60 -36 -66 -16 -66 13 0 136 216
136 239 0 26 -22 7 -48 -39 -15 -27 -32 -50 -39 -50 -6 0 -43 17 -82 38 -68
37 -70 39 -55 60 24 35 45 90 35 96 -5 3 -13 0 -18 -7z"/>
<path d="M2906 2272 c-2 -4 25 -53 62 -109 37 -56 72 -110 78 -120 9 -13 15
-15 23 -7 8 7 -10 43 -65 127 -73 112 -87 127 -98 109z"/>
<path d="M2847 2168 c8 -29 24 -75 34 -102 10 -28 17 -52 14 -54 -2 -2 -35 16
-72 40 -185 121 -183 120 -183 94 0 -8 18 -67 40 -132 22 -65 40 -119 40 -121
0 -2 7 -3 15 -3 8 0 15 1 15 3 0 2 -15 49 -34 105 -19 56 -32 102 -28 102 4 0
58 -34 121 -74 63 -41 120 -72 127 -69 10 4 9 16 -5 56 -10 29 -31 87 -46 130
-16 44 -33 77 -40 77 -11 0 -11 -10 2 -52z"/>
<path d="M2319 2038 c-12 -68 -24 -125 -25 -126 -2 -2 -23 0 -48 6 -35 7 -46
7 -46 -3 0 -8 34 -19 93 -30 50 -9 100 -19 110 -22 10 -3 17 1 17 10 0 15 -29
27 -67 27 -13 0 -23 6 -23 13 0 16 29 195 37 225 3 15 1 22 -10 22 -11 0 -20
-31 -38 -122z"/>
<path d="M2557 2143 c-3 -5 -2 -15 3 -22 10 -17 43 -6 38 12 -6 15 -34 22 -41
10z"/>
</g>
</svg>
