<?xml version="1.0" standalone="no"?>
<!DOCTYPE svg PUBLIC "-//W3C//DTD SVG 20010904//EN"
 "http://www.w3.org/TR/2001/REC-SVG-20010904/DTD/svg10.dtd">
<svg version="1.0" xmlns="http://www.w3.org/2000/svg"
 width="500.000000pt" height="500.000000pt" viewBox="0 0 500.000000 500.000000"
 preserveAspectRatio="xMidYMid meet">

<g transform="translate(0.000000,500.000000) scale(0.100000,-0.100000)"
fill="#000000" stroke="none">
<path d="M2428 3865 c-1 -63 -2 -130 -2 -147 -1 -27 3 -34 22 -36 21 -3 22 0
22 57 l0 61 75 0 c68 0 75 2 75 20 0 18 -7 20 -75 20 l-75 0 0 50 0 50 85 0
c69 0 85 3 85 15 0 10 -10 15 -32 14 -32 -1 -32 -1 -8 -10 17 -6 -1 -7 -57 -5
l-83 3 0 -64 0 -63 70 0 c40 0 70 -4 70 -10 0 -6 -25 -8 -68 -4 l-69 7 -10
-64 c-10 -59 -10 -54 -9 71 l1 135 65 6 65 6 -72 1 -73 2 -2 -115z"/>
<path d="M2152 3919 c-102 -51 -109 -192 -13 -256 64 -43 167 -25 211 37 52
73 28 180 -50 220 -50 26 -94 25 -148 -1z m138 -7 c65 -34 90 -133 51 -198
-25 -42 -83 -68 -134 -61 -103 14 -158 128 -102 213 19 29 87 63 125 64 14 0
41 -8 60 -18z"/>
<path d="M2159 3895 c-40 -21 -59 -58 -59 -113 0 -41 5 -52 33 -79 38 -36 72
-46 117 -33 39 11 90 57 90 79 -1 11 -5 8 -14 -7 -19 -35 -66 -62 -108 -62
-53 0 -97 41 -105 97 -5 40 -3 46 35 83 29 30 48 40 71 40 62 0 106 -41 124
-115 4 -18 5 -18 6 3 2 34 -24 87 -50 106 -29 20 -104 20 -140 1z"/>
<path d="M2908 3824 c-23 -37 -59 -93 -79 -123 -26 -40 -34 -60 -27 -68 18
-22 25 -15 74 62 26 41 50 73 52 70 3 -2 4 -42 3 -89 -1 -48 2 -87 8 -90 6 -4
46 11 90 34 76 38 80 39 72 17 -5 -13 -28 -50 -50 -82 -34 -49 -39 -60 -26
-67 8 -5 17 -9 21 -9 10 -1 163 235 158 243 -10 16 -40 7 -114 -31 -41 -21
-86 -42 -99 -46 l-24 -7 8 114 c6 95 4 116 -8 127 -13 10 -22 1 -59 -55z m-5
-61 c-36 -54 -69 -105 -73 -113 -5 -8 -12 -12 -15 -8 -8 8 136 229 146 223 4
-3 -22 -49 -58 -102z m160 -97 c119 62 135 66 110 27 -52 -85 -126 -194 -134
-199 -18 -11 -8 10 49 94 31 48 61 92 65 100 8 12 -23 -1 -150 -66 -28 -15
-55 -24 -58 -20 -4 3 -3 50 2 105 l8 98 3 -96 3 -96 102 53z"/>
<path d="M2640 3705 c-10 -12 -10 -18 0 -30 16 -20 36 -19 44 1 6 16 -9 44
-24 44 -4 0 -13 -7 -20 -15z m30 -10 c0 -8 -4 -15 -10 -15 -5 0 -10 7 -10 15
0 8 5 15 10 15 6 0 10 -7 10 -15z"/>
<path d="M1743 3655 c-76 -33 -113 -159 -67 -223 39 -51 84 -74 137 -69 54 5
91 28 125 77 33 49 29 83 -15 125 -40 37 -57 42 -69 23 -4 -7 8 -24 31 -43 31
-27 36 -36 30 -56 -9 -30 -43 -68 -70 -79 -16 -7 -17 -9 -3 -9 25 -1 65 39 83
81 l14 36 -34 27 c-19 14 -35 31 -35 37 0 19 78 -57 79 -77 1 -29 -44 -92 -79
-110 -70 -36 -158 -5 -194 69 -16 32 -17 44 -7 76 6 20 20 49 32 64 22 28 77
61 87 52 6 -7 7 -6 -32 -26 -101 -52 -96 -202 7 -231 21 -5 44 -8 50 -6 7 2
-5 7 -25 11 -106 20 -118 175 -17 216 19 7 35 14 37 15 1 1 0 10 -4 19 -7 19
-19 20 -61 1z"/>
<path d="M2067 3606 c-7 -19 18 -40 39 -32 8 3 14 14 12 23 -4 22 -43 29 -51
9z m33 -6 c0 -5 -4 -10 -10 -10 -5 0 -10 5 -10 10 0 6 5 10 10 10 6 0 10 -4
10 -10z"/>
<path d="M3255 3588 c-22 -16 -51 -37 -65 -46 -14 -9 -49 -35 -77 -57 -49 -37
-52 -40 -38 -60 8 -11 33 -48 57 -82 23 -35 47 -63 53 -63 6 0 11 -10 12 -21
1 -12 4 -23 7 -26 2 -3 44 7 92 21 48 14 89 25 90 23 2 -1 -24 -32 -56 -67
-33 -36 -60 -70 -60 -77 0 -12 67 -36 136 -49 55 -10 48 -19 -29 -38 -40 -10
-80 -20 -89 -23 -11 -2 -18 -14 -18 -28 0 -26 -4 -27 125 10 44 12 99 28 122
34 58 16 50 44 -19 60 -98 22 -158 42 -158 53 0 6 33 45 74 87 106 110 92 122
-78 71 -108 -33 -126 -35 -126 -19 0 6 -20 39 -45 73 -25 35 -45 66 -45 69 0
13 71 48 82 40 7 -4 17 -8 22 -8 5 0 20 -16 34 -35 l25 -35 -31 35 c-39 43
-42 24 -5 -22 15 -18 28 -35 30 -37 2 -3 8 0 14 6 12 12 -4 48 -47 100 l-26
32 34 21 c42 26 42 26 70 -10 62 -83 73 -93 85 -79 9 11 -1 31 -44 89 -30 41
-58 78 -61 81 -4 3 -25 -7 -47 -23z m69 -30 l27 -43 -28 33 -28 33 -43 -32
c-32 -23 -42 -37 -39 -51 5 -16 3 -17 -9 -7 -11 9 -22 6 -55 -16 -22 -16 -42
-32 -45 -37 -3 -4 16 -37 41 -73 63 -88 50 -83 -16 6 -51 69 -52 73 -34 86 11
8 58 43 105 78 47 35 88 64 91 64 4 1 18 -18 33 -41z m56 -78 c12 -16 19 -30
16 -30 -2 0 -14 14 -26 30 -12 17 -19 30 -16 30 2 0 14 -13 26 -30z m90 -156
c0 -3 -37 -44 -82 -91 -46 -46 -82 -89 -80 -94 1 -5 -5 -9 -13 -9 -8 0 -15 3
-15 7 0 4 36 44 81 89 l81 81 -109 -28 c-119 -31 -132 -34 -118 -20 6 5 55 21
109 35 55 15 102 29 105 31 6 7 41 6 41 -1z m-17 -225 c48 -12 87 -25 87 -30
0 -5 -26 -16 -57 -24 -32 -9 -89 -25 -127 -36 -61 -18 -90 -19 -74 -4 3 3 57
19 119 35 105 26 112 29 86 39 -16 6 -36 11 -45 12 -9 0 -42 9 -72 19 -62 22
-43 20 83 -11z"/>
<path d="M1536 3384 c-9 -24 -7 -34 6 -34 7 0 50 -14 96 -32 59 -22 79 -34 69
-40 -8 -4 -64 -24 -124 -44 -97 -33 -122 -46 -123 -65 0 -4 39 -21 88 -38 48
-18 109 -41 136 -52 55 -21 53 -21 58 5 2 16 -12 25 -92 53 -52 19 -96 35 -97
37 -2 2 55 22 126 45 77 26 132 49 136 58 3 9 4 17 3 18 -7 5 -97 38 -133 50
-22 7 -63 22 -92 33 -45 18 -52 19 -57 6z m133 -45 c64 -23 120 -45 125 -49
12 -11 -12 -22 -159 -70 -96 -32 -124 -45 -110 -51 11 -4 63 -23 115 -43 52
-19 88 -35 79 -36 -23 0 -239 77 -242 87 -1 4 64 30 146 57 l147 50 -53 22
c-30 12 -78 29 -108 39 -50 16 -85 35 -65 35 5 0 61 -19 125 -41z"/>
<path d="M1440 3030 c0 -24 11 -27 137 -40 59 -7 114 -14 122 -16 10 -3 -7
-27 -54 -74 -54 -54 -74 -69 -90 -64 -19 6 -19 6 -2 -12 18 -18 20 -17 88 54
38 40 69 67 69 60 0 -7 -30 -44 -65 -82 l-65 -69 -25 23 c-13 12 -23 27 -22
32 1 6 -22 28 -50 49 -50 38 -53 39 -53 17 0 -17 23 -40 85 -86 47 -35 83 -68
80 -72 -3 -4 -36 -11 -75 -15 -72 -7 -76 -10 -61 -34 8 -13 26 -13 123 -2 161
18 168 20 168 42 0 16 -7 19 -42 19 -26 0 -53 8 -67 19 l-24 18 21 29 c11 16
34 42 51 58 19 19 31 40 31 56 0 15 3 30 7 34 4 3 8 15 10 25 2 15 -6 20 -44
25 -25 3 -64 5 -87 5 -29 -1 -20 -4 34 -11 41 -5 77 -11 79 -14 13 -12 -16
-12 -124 0 -66 8 -123 12 -127 10 -3 -2 -9 0 -13 6 -4 6 15 10 52 11 67 1 61
6 -14 12 -45 3 -53 2 -53 -13z m50 -160 c45 -39 34 -39 -15 0 -21 17 -34 30
-29 30 5 -1 25 -14 44 -30z m151 -112 c19 -12 36 -16 58 -12 18 4 31 2 31 -4
0 -5 -46 -15 -102 -21 -57 -7 -115 -14 -130 -16 -16 -3 -28 -1 -28 4 0 5 28
12 63 15 34 4 73 10 85 13 l24 6 -29 24 c-30 26 -15 22 28 -9z"/>
<path d="M3266 2923 c-2 -10 -8 -57 -12 -105 -6 -83 -5 -88 13 -88 18 0 21 9
27 82 4 45 8 83 9 84 1 2 22 0 46 -3 l44 -6 -7 -73 c-5 -68 -4 -74 13 -74 16
0 20 11 26 70 l7 70 44 0 43 0 -2 -81 c-1 -55 2 -83 10 -86 15 -5 20 16 28
118 l7 85 -128 12 c-163 15 -162 15 -168 -5z m192 -9 c45 -4 82 -11 82 -16 0
-5 -8 -7 -17 -4 -10 2 -66 7 -124 11 l-106 7 -7 -48 c-3 -26 -6 -64 -6 -85 0
-22 -5 -39 -11 -39 -10 0 -8 47 8 154 l5 38 47 -6 c25 -3 83 -9 129 -12z m-46
-81 c-5 -76 -10 -83 -11 -15 0 34 2 62 7 62 4 0 6 -21 4 -47z m123 -71 c-11
-72 -17 -40 -8 44 6 60 9 69 11 39 2 -22 1 -60 -3 -83z"/>
<path d="M3259 2679 c-52 -31 -81 -86 -77 -146 2 -35 7 -48 18 -48 11 0 16 15
20 52 8 75 46 113 112 113 40 0 53 -5 73 -26 13 -14 27 -35 31 -46 11 -35 -6
-90 -38 -120 -33 -31 -32 -60 2 -51 59 16 97 131 66 201 -35 78 -137 113 -207
71z m115 -3 c98 -41 122 -152 49 -228 -42 -44 -50 -33 -9 12 31 35 36 47 36
89 0 164 -239 154 -244 -10 0 -21 -4 -39 -8 -39 -14 0 -7 74 10 110 11 23 32
43 62 58 52 26 60 27 104 8z"/>
<path d="M1772 2601 c-19 -11 -11 -45 11 -49 9 -2 20 4 23 13 9 21 -16 47 -34
36z m14 -28 c-10 -10 -19 5 -10 18 6 11 8 11 12 0 2 -7 1 -15 -2 -18z"/>
<path d="M1843 2469 c-9 -9 0 -25 43 -72 29 -33 54 -63 54 -67 0 -3 -14 -19
-30 -35 l-30 -29 -50 53 c-43 46 -70 58 -70 31 0 -4 21 -31 47 -60 l47 -52
-34 -28 -34 -28 -57 59 c-49 52 -57 58 -69 45 -10 -14 -2 -26 57 -88 l70 -71
29 21 c16 11 64 56 108 100 l79 80 -74 77 c-58 59 -77 73 -86 64z m82 -76 l60
-64 -92 -90 c-50 -49 -95 -89 -100 -89 -5 0 -38 29 -73 65 -35 36 -60 65 -54
65 5 0 34 -27 63 -61 l54 -61 43 43 44 43 -52 53 c-29 29 -49 53 -45 53 5 0
30 -23 56 -52 l48 -52 43 42 43 41 -57 66 c-74 84 -60 83 19 -2z"/>
<path d="M3135 2453 c-31 -8 -83 -51 -100 -83 -31 -61 -19 -132 30 -180 28
-27 44 -34 88 -38 86 -7 148 39 168 126 22 99 -85 199 -186 175z m112 -37 c30
-20 63 -77 63 -111 0 -36 -34 -95 -69 -119 -62 -43 -130 -30 -185 34 -20 25
-26 42 -26 81 0 42 5 54 35 87 56 63 115 72 182 28z"/>
<path d="M3120 2412 c-64 -32 -97 -111 -69 -164 23 -43 62 -67 109 -68 77 0
129 49 130 122 0 57 -15 85 -59 108 -49 25 -66 25 -111 2z m126 -34 c34 -30
36 -34 31 -82 -14 -147 -217 -139 -217 9 0 29 8 45 34 71 47 47 100 48 152 2z"/>
<path d="M1990 2233 c-19 -37 -44 -83 -55 -103 -42 -72 -46 -89 -26 -99 16 -9
23 -3 48 44 l29 55 71 -36 72 -37 -29 -56 c-27 -55 -28 -58 -10 -69 11 -6 21
-8 23 -4 50 84 127 247 123 258 -11 28 -32 13 -59 -41 -21 -44 -30 -53 -44
-47 -35 14 -123 62 -123 67 0 2 12 30 27 61 22 46 24 57 12 65 -22 13 -22 13
-59 -58z m26 -16 c-14 -24 -26 -48 -26 -54 0 -5 23 -20 51 -33 28 -13 53 -28
56 -33 3 -4 -22 6 -56 22 -67 34 -71 36 -71 20 0 -18 -54 -103 -58 -91 -2 6 8
30 21 54 13 24 41 74 62 113 21 38 40 64 42 58 3 -7 -7 -32 -21 -56z m158
-144 c-59 -112 -84 -149 -84 -124 0 8 13 36 30 62 l29 48 -22 16 -22 16 25 -6
c22 -5 28 0 53 45 16 27 32 50 38 50 5 0 -16 -48 -47 -107z"/>
<path d="M2910 2275 c-10 -13 -7 -24 22 -68 19 -28 54 -82 78 -119 47 -72 47
-73 69 -59 12 8 11 16 -11 48 -14 21 -51 77 -83 126 -31 48 -58 87 -60 87 -1
0 -8 -7 -15 -15z m43 -47 c14 -24 46 -74 71 -112 25 -38 43 -72 39 -75 -3 -3
-7 -1 -10 5 -2 5 -35 56 -73 113 -74 108 -75 111 -61 111 5 0 20 -19 34 -42z"/>
<path d="M2834 2224 c-8 -3 -1 -36 21 -102 18 -53 32 -98 31 -100 -2 -1 -30
15 -62 36 -139 91 -158 102 -176 102 -24 0 -23 -6 26 -150 35 -105 46 -126 64
-128 28 -4 27 1 -2 79 -13 35 -27 79 -31 97 l-7 33 82 -53 c131 -85 134 -87
159 -87 18 -1 22 3 16 17 -3 9 -23 64 -42 122 -48 143 -50 146 -79 134z m60
-131 c21 -62 36 -117 34 -123 -2 -6 -26 4 -53 23 -59 40 -113 75 -174 112 -37
23 -43 24 -36 9 38 -91 79 -234 61 -213 -11 13 -84 244 -78 247 5 1 49 -24 98
-56 114 -74 164 -105 164 -99 0 2 -16 50 -35 106 -19 56 -35 107 -35 113 0 28
19 -14 54 -119z"/>
<path d="M2335 2148 c-8 -34 -45 -219 -45 -225 0 -3 -22 -2 -50 2 -41 6 -50 4
-50 -8 0 -19 16 -25 130 -47 99 -19 110 -18 110 5 0 14 -13 19 -65 27 -18 3
-20 10 -17 57 2 30 10 86 18 124 12 57 12 72 2 79 -21 12 -27 10 -33 -14z m11
-89 c-9 -52 -18 -108 -22 -126 -6 -32 -5 -33 35 -39 23 -4 44 -11 47 -16 4 -6
-1 -8 -12 -5 -11 3 -48 11 -84 17 -98 17 -113 21 -108 25 3 3 25 1 50 -3 l45
-9 11 51 c6 28 16 80 22 116 14 78 19 95 26 88 3 -3 -2 -48 -10 -99z"/>
<path d="M2557 2154 c-13 -13 -7 -42 10 -48 21 -8 36 6 31 30 -3 19 -29 30
-41 18z m33 -19 c0 -8 -7 -15 -15 -15 -16 0 -20 12 -8 23 11 12 23 8 23 -8z"/>
</g>
</svg>
